<svg xmlns="http://www.w3.org/2000/svg" width="24mm" height="24mm" viewBox="0 0 24 24"><g style="font-size:28px;font-family:grotesk;-inkscape-font-specification:grotesk;fill:#e6e6e6;stroke-width:4.375"><path d="M39.56 92.866a6.5 6.5 0 0 0-3.248.84 6.14 6.14 0 0 0-2.353 2.38q-.867 1.54-.867 3.696v.392q0 2.13.867 3.696a6.14 6.14 0 0 0 2.353 2.38q1.483.84 3.247.84 1.457.001 2.436-.364.981-.391 1.596-.98a5 5 0 0 0 .953-1.204h.391v2.548h2.156V93.26h-2.1v2.267H44.6q-.56-1.008-1.735-1.82-1.148-.84-3.305-.84m.588 1.96q2.127 0 3.443 1.345 1.344 1.316 1.344 3.695v.224q0 2.352-1.344 3.696-1.316 1.344-3.443 1.344-2.1 0-3.473-1.344-1.344-1.344-1.344-3.696v-.224q0-2.38 1.344-3.695 1.373-1.344 3.473-1.345m4.787 14.216v.709q0 .84-.84.84H33.094v1.96h11.59q1.176 0 1.792-.644.616-.645.616-1.765v-1.1z" aria-label="g" style="font-family:&quot;Space Grotesk&quot;;-inkscape-font-specification:&quot;Space Grotesk&quot;;fill:#e6e6e6" transform="translate(-28.091 -90.708)"/></g></svg>